# AST/ASF file generated using VICON BodyLanguage
# -----------------------------------------------
:version 1.10
:name VICON
:units
  mass 1.0
  length 0.45
  angle deg
:documentation
   .ast/.asf automatically generated from VICON data using
   VICON BodyBuilder and BodyLanguage model FoxedUp or BRILLIANT.MOD
:root
   order TX TY TZ RX RY RZ
   axis XYZ
   position 0 0 0  
   orientation 0 0 0 
:bonedata
  begin
     id 1 
     name lhipjoint
     direction 0.692814 -0.645514 0.321437 
     length 2.38754 
     axis 0 0 0  XYZ
  end
  begin
     id 2 
     name lfemur
     direction 0.34202 -0.939693 0  
     length 6.41921  
     axis 0 0 20  XYZ
    dof rx ry rz
    limits (-160.0 20.0)
           (-70.0 70.0)
           (-60.0 70.0)
  end
  begin
     id 3 
     name ltibia
     direction 0.34202 -0.939693 0   
     length 6.98247   
     axis 0 0 20   XYZ
    dof rx
    limits (-10.0 170.0)
  end
  begin
     id 4 
     name lfoot
     direction 0.0947186 -0.260237 0.960888   
     length 1.83034   
     axis -90 7.62852e-016 20   XYZ
    dof rx rz
    limits (-45.0 90.0)
           (-70.0 20.0)
  end
  begin
     id 5 
     name ltoes
     direction 1.53538e-011 -4.21952e-011 1   
     length 0.920499   
     axis -90 7.62852e-016 20   XYZ
    dof rx
    limits (-90.0 20.0)
  end
  begin
     id 6 
     name rhipjoint
     direction -0.631686 -0.693949 0.345555   
     length 2.2209  
     axis 0 0 0  XYZ 
  end
  begin
     id 7 
     name rfemur
     direction -0.34202 -0.939693 0   
     length 6.49542   
     axis 0 0 -20   XYZ
    dof rx ry rz
    limits (-160.0 20.0)
           (-70.0 70.0)
           (-70.0 60.0)
  end
  begin
     id 8 
     name rtibia
     direction -0.34202 -0.939693 0   
     length 7.21712   
     axis 0 0 -20   XYZ
    dof rx
    limits (-10.0 170.0)
 end
 begin
     id 9 
     name rfoot
     direction -0.0825378 -0.226771 0.970444   
     length 1.89724  
     axis -90 -7.62852e-016 -20   XYZ
    dof rx rz
    limits (-45.0 90.0)
           (-20.0 70.0)
  end
  begin
     id 10 
     name rtoes
     direction -1.53515e-011 -4.22016e-011 1   
     length 0.955868   
     axis -90 -7.62852e-016 -20   XYZ
    dof rx
    limits (-90.0 20.0)
  end
  begin
     id 11 
     name lowerback
     direction -0.0104711 0.984802 -0.173368   
     length 1.84931   
     axis 0 0 0   XYZ
    dof rx ry rz
    limits (-20.0 45.0)
           (-30.0 30.0)
           (-30.0 30.0)
  end
  begin
     id 12 
     name upperback
     direction -0.00286433 0.999996 -0.000382853   
     length 1.85768   
     axis 0 0 0   XYZ
    dof rx ry rz
    limits (-20.0 45.0)
           (-30.0 30.0)
           (-30.0 30.0)
  end
  begin
     id 13 
     name thorax
     direction 0.00167534 0.996793 0.0800069   
     length 1.92   
     axis 0 0 0   XYZ
    dof rx ry rz
    limits (-20.0 45.0)
           (-30.0 30.0)
           (-30.0 30.0)
  end
  begin
     id 14 
     name lowerneck
     direction -0.0672491 0.995415 0.068018   
     length 1.58923   
     axis 0 0 0   XYZ
    dof rx ry rz
    limits (-20.0 45.0)
           (-30.0 30.0)
           (-30.0 30.0)
  end
  begin
     id 15 
     name upperneck
     direction 0.0958019 0.982476 -0.159884   
     length 1.60189   
     axis 0 0 0   XYZ
    dof rx ry rz
    limits (-20.0 45.0)
           (-30.0 30.0)
           (-30.0 30.0)
  end
  begin
     id 16
     name head
     direction 0.032989 0.997338 -0.0650226  
     length 1.61681  
     axis 0 0 0   XYZ
    dof rx ry rz
    limits (-20.0 45.0)
           (-30.0 30.0)
           (-30.0 30.0)
  end
  begin
     id 17 
     name lclavicle
     direction 0.954279 0.298875 -0.00496069  
     length 2.99449  
     axis 0 0 0   XYZ
    dof ry rz
    limits (-20.0 10.0)
           (0.0 20.0)
  end
  begin
     id 18 
     name lhumerus
     direction 1 -4.48985e-011 -4.2057e-027   
     length 4.79185   
     axis 180 -30 -90   XYZ
    dof rx ry rz
    limits (-60.0 90.0)
           (-90.0 90.0)
           (-90.0 90.0)
  end
  begin
     id 19
     name lradius
     direction 1 -4.48945e-011 1.15441e-028   
     length 2.65553   
     axis 180 -30 -90   XYZ
    dof rx
    limits (-10.0 170.0)
  end
  begin
     id 20
     name lwrist
     direction 1 -4.4899e-011 4.8894e-028   
     length 1.32777   
     axis -2.56392e-016 90 90   XYZ
    dof ry
    limits (-180.0 0.0)
 end
  begin
     id 21 
     name lhand
     direction 1 -4.48908e-011 9.7788e-028   
     length 0.743904   
     axis -6.23971e-016 90 90   XYZ
    dof rx rz
    limits (-90.0 90.0)
           (-45.0 45.0)
  end
  begin
     id 22 
     name lfingers
     direction 1 -4.49068e-011 1.95576e-027   
     length 0.599754   
     axis -1.24794e-015 90 90   XYZ
    dof rx
    limits (0.0 90.0)
  end
  begin
     id 23
     name lthumb
     direction 0.707107 -6.34883e-011 0.707107   
     length 0.861131   
     axis -90 45 2.85299e-015   XYZ
    dof rx rz
    limits (-45.0 45.0)
           (-45.0 45.0)
  end
  begin
     id 24 
     name rclavicle
     direction -0.957921 0.286916 0.00811568   
     length 3.06817  
     axis 0 0 0   XYZ 
    dof ry rz
    limits (-10.0 20.0)
           (-20.0 0.0)
  end
  begin
     id 25 
     name rhumerus
     direction -1 -4.48971e-011 -3.07942e-027  
     length 4.77254   
     axis 180 30 90   XYZ
    dof rx ry rz
    limits (-90.0 60.0)
           (-90.0 90.0)
           (-90.0 90.0)
  end
  begin
     id 26 
     name rradius
     direction -1 -4.48957e-011 -9.6815e-028   
     length 2.75995   
     axis 180 30 90   XYZ
    dof rx
    limits (-10.0 170.0)
  end
  begin
     id 27 
     name rwrist
     direction -1 -4.48979e-011 4.8894e-028   
     length 1.37997   
     axis -2.56392e-016 -90 -90   XYZ
    dof ry
    limits (-180.0 0.0)
  end
  begin
     id 28
     name rhand
     direction -1 -4.48906e-011 9.7788e-028   
     length 0.701619   
     axis -6.23971e-016 -90 -90   XYZ
    dof rx rz
    limits (-90.0 90.0)
           (-45.0 45.0)
  end
  begin
     id 29
     name rfingers
     direction -1 -4.49018e-011 1.95576e-027   
     length 0.565663   
     axis -1.24794e-015 -90 -90   XYZ
    dof rx
    limits (0.0 90.0)
  end
  begin
     id 30
     name rthumb
     direction -0.707107 -6.34881e-011 0.707107   
     length 0.812183   
     axis -90 -45 -2.85299e-015   XYZ
    dof rx rz
    limits (-45.0 45.0)
           (-45.0 45.0)
  end
:hierarchy
  begin
    root lhipjoint rhipjoint lowerback
    lhipjoint lfemur
    lfemur ltibia
    ltibia lfoot
    lfoot ltoes
    rhipjoint rfemur
    rfemur rtibia
    rtibia rfoot
    rfoot rtoes
    lowerback upperback
    upperback thorax
    thorax lowerneck lclavicle rclavicle
    lowerneck upperneck
    upperneck head
    lclavicle lhumerus
    lhumerus lradius
    lradius lwrist
    lwrist lhand lthumb
    lhand lfingers
    rclavicle rhumerus
    rhumerus rradius
    rradius rwrist
    rwrist rhand rthumb
    rhand rfingers
  end

#!OML:ASF F:\VICON\USERDATA\INSTALL\rory3\rory3.ASF
:FULLY-SPECIFIED
:DEGREES
1
root 0.0590538 16.1326 0.55646 2.32574 -0.584201 -0.521007
lowerback 8.55649 -0.637992 -1.42808
upperback -2.53411 -0.989547 0.387429
thorax -7.44495 -0.408308 1.35815
lowerneck -12.1684 -7.77034 -11.8912
upperneck 27.5272 -10.5735 7.63394
head 12.1396 -5.12734 3.3213
rclavicle 2.98488e-015 -1.98785e-014
rhumerus -38.9262 -0.101875 -80.0044
rradius 32.3209
rwrist 3.88741
rhand -13.1027 12.7959
rfingers 7.12502
rthumb 12.9942 -16.7794
lclavicle 2.98488e-015 -1.98785e-014
lhumerus -34.9519 13.1494 70.9543
lradius 18.4542
lwrist -8.82071
lhand -10.8743 13.9193
lfingers 7.12502
lthumb 15.1416 43.3454
rfemur 0.0108704 11.2283 18.6411
rtibia 14.1686
rfoot -12.7414 -13.8702
rtoes -7.42402
lfemur 7.37055 -10.5444 -16.3748
ltibia 4.77083e-015
lfoot -6.47998 9.90438
ltoes -10.6445
2
root 0.0602164 16.13 0.559864 2.28103 -0.506174 -0.477328
lowerback 8.59572 -0.641638 -1.49942
upperback -2.55134 -1.004 0.378269
thorax -7.48463 -0.411753 1.39167
lowerneck -12.2393 -7.76759 -11.909
upperneck 27.5415 -10.5551 7.62594
head 12.1584 -5.11977 3.32202
rclavicle 6.25861e-016 9.54166e-015
rhumerus -38.9406 0.0714509 -80.3508
rradius 32.2371
rwrist 3.91289
rhand -12.8649 12.8722
rfingers 7.12502
rthumb 13.2235 -16.6884
lclavicle 6.25861e-016 9.54166e-015
lhumerus -35.3694 13.8378 70.6052
lradius 18.5044
lwrist -8.99047
lhand -10.5014 14.2257
lfingers 7.12502
lthumb 15.5008 43.6243
rfemur 0.0854901 11.2581 18.6189
rtibia 14.1717
rfoot -12.7967 -13.9566
rtoes -7.45401
lfemur 7.41649 -10.6256 -16.4383
ltibia 0
lfoot -6.43662 9.91715
ltoes -10.9904
3
root 0.0621967 16.1285 0.563996 2.21229 -0.471961 -0.558905
lowerback 8.57144 -0.604996 -1.42344
upperback -2.48971 -0.944549 0.390651
thorax -7.40761 -0.387073 1.35205
lowerneck -12.345 -7.80338 -11.9044
upperneck 27.497 -10.5959 7.64184
head 12.1681 -5.13203 3.31643
rclavicle 1.14456e-014 -2.32578e-014
rhumerus -38.9341 0.3459 -80.7399
rradius 32.2543
rwrist 3.74769
rhand -12.6687 12.7331
rfingers 7.12502
rthumb 13.4125 -16.8151
lclavicle 1.14456e-014 -2.32578e-014
lhumerus -35.6325 14.019 70.5821
lradius 18.6347
lwrist -8.71279
lhand -10.2918 14.663
lfingers 7.12502
lthumb 15.7026 44.0459
rfemur 0.229548 11.345 18.7351
rtibia 14.0815
rfoot -12.6958 -14.1367
rtoes -7.36149
lfemur 7.50331 -10.6608 -16.3707
ltibia -1.59028e-014
lfoot -6.44838 9.96192
ltoes -10.8798
4
root 0.064199 16.1268 0.568466 2.15244 -0.38979 -0.644212
lowerback 8.56642 -0.577764 -1.36204
upperback -2.4683 -0.899693 0.407301
thorax -7.38388 -0.367882 1.3281
lowerneck -12.3522 -7.85068 -11.9305
upperneck 27.4655 -10.6701 7.69318
head 12.1712 -5.1613 3.32723
rclavicle 7.30378e-015 -1.82882e-014
rhumerus -38.9852 0.547055 -81.1335
rradius 32.2181
rwrist 3.50479
rhand -12.8149 12.6229
rfingers 7.12502
rthumb 13.2716 -16.9345
lclavicle 7.30378e-015 -1.82882e-014
lhumerus -35.9943 14.208 70.5269
lradius 18.822
lwrist -8.23603
lhand -10.1713 14.7821
lfingers 7.12502
lthumb 15.8187 44.1558
rfemur 0.366835 11.2852 18.8441
rtibia 14.0201
rfoot -12.6347 -14.1909
rtoes -7.4074
lfemur 7.57524 -10.7431 -16.2971
ltibia -1.74931e-014
lfoot -6.39004 9.95235
ltoes -10.9467
5
root 0.0669813 16.1256 0.57144 2.10467 -0.294722 -0.732949
lowerback 8.60294 -0.556178 -1.28999
upperback -2.49311 -0.862318 0.419529
thorax -7.43342 -0.351925 1.29574
lowerneck -12.252 -7.88089 -11.925
upperneck 27.3723 -10.7226 7.70352
head 12.1203 -5.18565 3.32368
rclavicle 1.48498e-014 -4.07509e-015
rhumerus -39.104 0.723812 -81.5352
rradius 32.1898
rwrist 3.30234
rhand -13.024 12.5863
rfingers 7.12502
rthumb 13.07 -16.9842
lclavicle 1.48498e-014 -4.07509e-015
lhumerus -36.3933 14.4675 70.4305
lradius 19.0549
lwrist -7.73962
lhand -9.79856 14.9191
lfingers 7.12502
lthumb 16.1776 44.264
rfemur 0.501023 11.1627 18.9424
rtibia 13.9346
rfoot -12.5899 -14.1643
rtoes -7.76939
lfemur 7.62086 -10.8372 -16.2201
ltibia 4.45278e-014
lfoot -6.33755 9.91431
ltoes -11.4232
6
root 0.0698609 16.1248 0.571638 2.09168 -0.191619 -0.770108
lowerback 8.6491 -0.533609 -1.27626
upperback -2.53152 -0.830189 0.435725
thorax -7.50209 -0.335519 1.30141
lowerneck -12.1957 -7.89922 -11.9234
upperneck 27.2811 -10.7417 7.6827
head 12.0737 -5.19776 3.31305
rclavicle -8.13775e-015 -7.95139e-016
rhumerus -39.2225 0.860363 -81.8087
rradius 32.2714
rwrist 3.49711
rhand -12.8108 12.4811
rfingers 7.12502
rthumb 13.2756 -17.0761
lclavicle -8.13775e-015 -7.95139e-016
lhumerus -36.7423 15.0062 70.2621
lradius 19.1533
lwrist -7.71641
lhand -9.48658 15.1584
lfingers 7.12502
lthumb 16.478 44.4786
rfemur 0.543811 11.1394 18.9923
rtibia 13.9036
rfoot -12.6739 -14.229
rtoes -7.53894
lfemur 7.61239 -10.9389 -16.1881
ltibia -3.18055e-015
lfoot -6.3002 9.91294
ltoes -11.6013
7
root 0.07324 16.1244 0.571619 2.11062 -0.0754711 -0.766747
lowerback 8.65496 -0.528623 -1.29503
upperback -2.5646 -0.826591 0.426929
thorax -7.54089 -0.332545 1.30261
lowerneck -12.1985 -7.91327 -11.8951
upperneck 27.2378 -10.7668 7.68916
head 12.0585 -5.20507 3.3061
rclavicle 7.07549e-015 7.95139e-016
rhumerus -39.296 0.972334 -82.0995
rradius 32.3317
rwrist 3.68839
rhand -12.415 12.2289
rfingers 7.12502
rthumb 13.6571 -17.303
lclavicle 7.07549e-015 7.95139e-016
lhumerus -37.0761 15.2498 70.251
lradius 19.3192
lwrist -7.26501
lhand -9.57529 15.2109
lfingers 7.12502
lthumb 16.3926 44.5382
rfemur 0.531501 11.1214 18.9845
rtibia 13.9094
rfoot -12.7746 -14.2963
rtoes -7.16687
lfemur 7.55628 -11.0522 -16.1961
ltibia 1.27222e-014
lfoot -6.24484 9.92569
ltoes -11.5926
8
root 0.0763866 16.122 0.571289 2.07477 -0.0266255 -0.727015
lowerback 8.70056 -0.506657 -1.37495
upperback -2.57042 -0.807966 0.415668
thorax -7.57327 -0.31961 1.33369
lowerneck -12.2303 -7.9129 -11.8867
upperneck 27.2202 -10.7762 7.73339
head 12.0613 -5.20219 3.31876
rclavicle -1.04005e-014 1.20265e-014
rhumerus -39.2996 0.957324 -82.3016
rradius 32.3296
rwrist 4.23033
rhand -11.801 12.1015
rfingers 7.12502
rthumb 14.2487 -17.3897
lclavicle -1.04005e-014 1.20265e-014
lhumerus -37.421 15.1871 70.4541
lradius 19.5116
lwrist -6.16735
lhand -10.0534 14.6893
lfingers 7.12502
lthumb 15.9322 44.054
rfemur 0.562956 11.1387 18.9426
rtibia 13.9549
rfoot -12.8793 -14.3361
rtoes -6.69653
lfemur 7.57603 -11.1031 -16.2611
ltibia -3.02153e-014
lfoot -6.15238 9.90624
ltoes -11.7979
9
root 0.0792801 16.1199 0.571918 2.02925 0.0331542 -0.688616
lowerback 8.74268 -0.482616 -1.43177
upperback -2.56276 -0.783799 0.404608
thorax -7.58969 -0.305274 1.35092
lowerneck -12.2725 -7.91714 -11.9027
upperneck 27.1781 -10.778 7.76274
head 12.0565 -5.19967 3.3303
rclavicle -7.04288e-015 1.55052e-014
rhumerus -39.2559 0.90577 -82.4699
rradius 32.3103
rwrist 4.75319
rhand -11.2984 12.0493
rfingers 7.12502
rthumb 14.7331 -17.4071
lclavicle -7.04288e-015 1.55052e-014
lhumerus -37.7273 15.3795 70.5166
lradius 19.7011
lwrist -5.58556
lhand -10.1725 14.4701
lfingers 7.12502
lthumb 15.8175 43.844
rfemur 0.61206 11.1586 18.9145
rtibia 14.015
rfoot -12.8923 -14.428
rtoes -6.59879
lfemur 7.61179 -11.1656 -16.3223
ltibia 1.59028e-014
lfoot -6.11862 9.85351
ltoes -11.8759
10
root 0.0820378 16.1192 0.572583 2.00437 0.0942715 -0.648173
lowerback 8.74407 -0.458913 -1.4668
upperback -2.54874 -0.758636 0.369964
thorax -7.57639 -0.292456 1.33022
lowerneck -12.3068 -7.93322 -11.8679
upperneck 27.1139 -10.8054 7.78104
head 12.0402 -5.20503 3.32507
rclavicle 9.26057e-015 -1.09332e-015
rhumerus -39.2724 1.23605 -82.9681
rradius 32.1829
rwrist 3.82196
rhand -11.619 12.4468
rfingers 7.12502
rthumb 14.4241 -17.032
lclavicle 9.26057e-015 -1.09332e-015
lhumerus -37.9813 15.8833 70.3797
lradius 19.8594
lwrist -5.53538
lhand -9.9613 14.5629
lfingers 7.12502
lthumb 16.0209 43.9204
rfemur 0.626614 11.1277 18.8721
rtibia 14.071
rfoot -12.8904 -14.4653
rtoes -6.91899
lfemur 7.63433 -11.2287 -16.3765
ltibia 6.36111e-015
lfoot -6.17563 9.81822
ltoes -11.7051
11
root 0.0839503 16.1188 0.573168 1.96653 0.143258 -0.646838
lowerback 8.75635 -0.417729 -1.47359
upperback -2.5326 -0.705509 0.354887
thorax -7.56808 -0.266739 1.31016
lowerneck -12.2823 -7.95433 -11.9171
upperneck 27.0341 -10.8525 7.89023
head 12.0198 -5.21883 3.36665
rclavicle -9.44615e-015 6.85807e-015
rhumerus -39.3507 1.77824 -83.57
rradius 32.0711
rwrist 2.28093
rhand -12.2536 13.0239
rfingers 7.12502
rthumb 13.8126 -16.4975
lclavicle -9.44615e-015 6.85807e-015
lhumerus -38.2387 16.1129 70.4324
lradius 20.0986
lwrist -5.10917
lhand -9.86531 14.5336
lfingers 7.12502
lthumb 16.1133 43.8838
rfemur 0.653709 11.1879 18.8802
rtibia 14.1083
rfoot -12.9877 -14.5269
rtoes -6.46957
lfemur 7.66132 -11.2791 -16.3927
ltibia -6.36111e-015
lfoot -6.15889 9.85049
ltoes -11.9076
